<?xml version="1.0" encoding="UTF-8"?>
<!DOCTYPE svg PUBLIC "-//W3C//DTD SVG 1.1//EN" "http://www.w3.org/Graphics/SVG/1.1/DTD/svg11.dtd">
<svg xmlns="http://www.w3.org/2000/svg" version="1.1" width="28px" height="28px" style="shape-rendering:geometricPrecision; text-rendering:geometricPrecision; image-rendering:optimizeQuality; fill-rule:evenodd; clip-rule:evenodd" xmlns:xlink="http://www.w3.org/1999/xlink">
<g><path style="opacity:1" fill="#fcfdfe" d="M -0.5,-0.5 C 8.83333,-0.5 18.1667,-0.5 27.5,-0.5C 27.5,8.83333 27.5,18.1667 27.5,27.5C 18.1667,27.5 8.83333,27.5 -0.5,27.5C -0.5,18.1667 -0.5,8.83333 -0.5,-0.5 Z"/></g>
<g><path style="opacity:1" fill="#102791" d="M 20.5,8.5 C 17.6085,7.59748 14.6085,7.26414 11.5,7.5C 11.702,9.94965 11.3686,12.283 10.5,14.5C 10.4828,16.5648 10.1495,18.5648 9.5,20.5C 8.16667,20.5 6.83333,20.5 5.5,20.5C 6.71002,14.9045 7.37668,9.23781 7.5,3.5C 10.8499,3.33499 14.1832,3.50166 17.5,4C 19.3757,4.9184 20.3757,6.4184 20.5,8.5 Z"/></g>
<g><path style="opacity:1" fill="#0a8bfa" d="M 20.5,8.5 C 19.1564,13.5152 15.8231,15.5152 10.5,14.5C 11.3686,12.283 11.702,9.94965 11.5,7.5C 14.6085,7.26414 17.6085,7.59748 20.5,8.5 Z"/></g>
<g><path style="opacity:1" fill="#65cdfe" d="M 20.5,8.5 C 23.8363,10.5266 24.3363,13.1932 22,16.5C 19.7724,18.1134 17.2724,18.78 14.5,18.5C 15.1518,22.5601 13.4851,24.5601 9.5,24.5C 9.5,23.1667 9.5,21.8333 9.5,20.5C 10.1495,18.5648 10.4828,16.5648 10.5,14.5C 15.8231,15.5152 19.1564,13.5152 20.5,8.5 Z"/></g>
</svg>
