<?xml version="1.0" standalone="no"?>
<!DOCTYPE svg PUBLIC "-//W3C//DTD SVG 20010904//EN"
 "http://www.w3.org/TR/2001/REC-SVG-20010904/DTD/svg10.dtd">
<svg version="1.0" xmlns="http://www.w3.org/2000/svg"
 width="512.000000pt" height="512.000000pt" viewBox="0 0 512.000000 512.000000"
 preserveAspectRatio="xMidYMid meet">

<g transform="translate(0.000000,512.000000) scale(0.100000,-0.100000)"
fill="#000000" stroke="none">
<path d="M357 4259 c-100 -24 -192 -103 -226 -195 -21 -54 -21 -65 -21 -1504
0 -1439 0 -1450 21 -1504 26 -70 92 -139 167 -174 l57 -27 2205 0 2205 0 67
33 c78 38 129 94 159 172 18 49 19 93 19 1500 0 1407 -1 1451 -19 1500 -30 78
-81 134 -159 172 l-67 33 -2185 2 c-1253 0 -2201 -3 -2223 -8z m1642 -433 c51
-27 68 -112 31 -159 -11 -14 -37 -31 -58 -37 -84 -27 -142 -90 -157 -171 l-7
-35 114 0 c127 0 189 -18 286 -82 90 -59 99 -100 47 -221 -24 -58 -27 -74 -23
-151 6 -134 52 -208 193 -315 33 -25 44 -73 33 -140 -18 -102 -186 -403 -274
-489 -21 -21 -68 -53 -104 -70 -61 -29 -71 -31 -162 -28 -132 4 -291 5 -418 0
-98 -3 -109 -1 -162 25 -77 38 -136 97 -212 214 -130 201 -174 324 -183 515
-13 256 58 461 208 603 108 102 210 139 362 133 l85 -3 6 64 c10 114 82 234
180 300 86 58 161 74 215 47z m2539 -1392 c49 -34 52 -53 52 -354 0 -230 -3
-286 -15 -310 -32 -63 -4 -60 -633 -60 l-574 0 -29 29 -29 29 0 312 0 312 29
29 29 29 574 0 c504 0 576 -2 596 -16z m-3213 -1060 c31 -14 65 -64 65 -94 0
-30 -34 -80 -65 -94 -49 -24 -681 -24 -730 0 -31 14 -65 64 -65 94 0 29 34 79
63 94 48 23 683 24 732 0z m1065 1 c40 -20 60 -53 60 -95 0 -42 -20 -75 -60
-95 -42 -22 -673 -22 -725 -1 -35 15 -65 59 -65 96 0 36 30 81 63 95 49 21
686 21 727 0z m1065 1 c35 -15 65 -59 65 -96 0 -37 -30 -81 -65 -96 -27 -11
-102 -14 -365 -14 -355 0 -369 2 -404 52 -35 49 -8 136 48 158 11 5 171 9 354
9 266 1 339 -2 367 -13z m1070 -2 c31 -14 65 -64 65 -94 0 -30 -34 -80 -65
-94 -49 -24 -681 -24 -730 0 -31 14 -65 64 -65 94 0 29 34 79 63 94 48 23 683
24 732 0z"/>
<path d="M1395 3198 c-145 -51 -235 -228 -235 -464 0 -177 31 -274 145 -448
89 -138 131 -164 233 -144 54 10 253 5 364 -8 103 -13 182 66 287 287 l49 101
-57 58 c-63 64 -119 162 -147 255 -22 75 -23 219 -2 297 l16 57 -31 10 c-43
16 -130 13 -224 -5 -76 -15 -89 -15 -172 0 -100 18 -182 20 -226 4z"/>
<path d="M3520 2080 l0 -160 425 0 425 0 0 160 0 160 -425 0 -425 0 0 -160z"/>
</g>
</svg>
