<?xml version="1.0" standalone="no"?>
<!DOCTYPE svg PUBLIC "-//W3C//DTD SVG 20010904//EN"
 "http://www.w3.org/TR/2001/REC-SVG-20010904/DTD/svg10.dtd">
<svg version="1.0" xmlns="http://www.w3.org/2000/svg"
 width="768.000000pt" height="768.000000pt" viewBox="0 0 768.000000 768.000000"
 preserveAspectRatio="xMidYMid meet">

<g transform="translate(0.000000,768.000000) scale(0.100000,-0.100000)"
fill="#000000" stroke="none">
<path d="M7470 6258 c0 -10 -352 -13 -1727 -13 l-1728 0 -155 -56 c-85 -31
-218 -78 -295 -104 -77 -26 -169 -59 -205 -73 -36 -14 -78 -28 -95 -32 -16 -5
-88 -29 -160 -55 -71 -25 -143 -50 -160 -55 -16 -4 -95 -32 -175 -60 -80 -28
-197 -69 -260 -91 -63 -21 -167 -57 -230 -79 -63 -23 -135 -47 -160 -55 -25
-7 -97 -32 -160 -55 -63 -23 -180 -63 -260 -90 -80 -27 -224 -77 -320 -111
-96 -33 -206 -72 -245 -85 -38 -12 -155 -53 -260 -89 -104 -36 -221 -77 -260
-90 -38 -13 -128 -44 -200 -70 -72 -25 -150 -52 -175 -60 -25 -8 -83 -27 -130
-43 l-85 -29 0 -1621 c0 -1291 -3 -1622 -12 -1622 -20 0 -15 -18 7 -25 11 -3
20 -14 20 -22 0 -9 8 -25 17 -36 14 -15 15 -21 5 -24 -9 -3 -6 -12 10 -28 18
-18 26 -21 36 -12 11 8 16 7 23 -6 6 -9 21 -17 34 -17 18 0 25 -5 25 -20 0
-21 16 -28 22 -10 5 17 7258 19 7258 3 0 -7 6 -13 14 -13 8 0 13 8 12 17 -1
12 7 19 22 21 13 2 26 10 29 18 3 9 13 12 24 9 23 -8 62 24 49 41 -7 8 -5 15
5 24 8 7 15 24 15 37 0 20 4 24 20 20 20 -5 30 18 10 25 -14 4 -14 4432 0
4436 18 6 10 22 -11 22 -14 0 -19 5 -17 19 2 10 -5 28 -15 39 -12 13 -15 22
-8 27 16 9 13 25 -4 25 -8 0 -15 -5 -15 -11 0 -5 -5 -7 -11 -3 -8 5 -8 9 1 14
7 4 9 13 5 19 -5 9 -10 9 -20 1 -9 -7 -16 -6 -25 5 -7 8 -24 15 -37 15 -20 0
-24 4 -20 20 3 13 0 20 -9 20 -8 0 -14 -6 -14 -12z m-4875 -1351 c249 -74 412
-169 560 -329 76 -81 127 -154 173 -243 71 -138 96 -222 117 -389 32 -256 -28
-514 -170 -736 -116 -180 -306 -338 -511 -424 -81 -33 -269 -75 -371 -83 -168
-12 -435 51 -588 140 -113 66 -164 105 -250 191 -76 76 -175 202 -175 221 0 3
-10 22 -23 43 -54 87 -107 260 -127 419 -12 92 -1 235 26 357 96 421 448 758
879 842 92 18 389 12 460 -9z m1330 -317 c36 -34 34 -81 -5 -113 -16 -14 -35
-27 -41 -29 -11 -4 10 -47 54 -110 12 -18 5 -34 -11 -24 -6 3 -27 35 -48 70
-27 47 -44 66 -63 69 -36 7 -53 -10 -51 -52 3 -64 0 -91 -10 -91 -11 0 -15
292 -4 302 3 3 39 5 80 4 62 -2 78 -6 99 -26z m875 19 c0 -4 -31 -62 -70 -128
-38 -67 -70 -126 -70 -132 0 -6 26 -9 68 -8 52 2 67 -1 67 -12 0 -11 -20 -14
-92 -16 -54 -1 -93 3 -93 8 0 5 8 22 18 37 31 45 82 133 82 141 0 4 11 22 25
41 14 19 25 38 25 42 0 4 -36 8 -80 8 -73 0 -91 6 -74 23 8 8 194 4 194 -4z
m430 -5 c0 -11 -20 -14 -94 -14 -84 0 -116 7 -100 22 2 3 47 5 99 6 75 0 95
-3 95 -14z m396 6 c14 -6 31 -25 40 -46 14 -33 13 -38 -4 -67 -10 -18 -28 -33
-40 -35 -29 -4 -28 -26 6 -76 38 -56 46 -78 27 -74 -8 2 -32 32 -53 68 -35 60
-40 65 -72 65 l-35 0 -5 -63 c-3 -34 -9 -63 -15 -65 -6 -1 -11 51 -12 138 -2
111 0 142 12 151 18 14 118 16 151 4z m-1336 -45 c0 -13 4 -26 9 -29 4 -3 23
-45 41 -93 18 -48 36 -92 41 -97 12 -13 11 -36 -1 -36 -11 0 -52 86 -77 163
-18 55 -41 60 -56 12 -5 -16 -14 -43 -21 -60 -7 -16 -19 -46 -26 -65 -16 -43
-25 -54 -38 -46 -8 5 18 77 98 264 12 28 30 20 30 -13z m938 -97 c-3 -9 -32
-14 -88 -16 -88 -3 -115 2 -105 18 10 16 198 13 193 -2z m-1 -141 c-2 -8 -34
-13 -87 -15 -94 -3 -118 2 -102 21 14 17 195 11 189 -6z m-939 -251 c62 -8
119 -20 127 -26 13 -11 12 -47 -1 -71 -2 -4 -32 -1 -66 7 -35 7 -117 16 -183
20 -147 8 -214 -7 -275 -63 -78 -70 -100 -157 -100 -396 0 -169 13 -264 39
-290 6 -6 11 -18 11 -27 0 -43 111 -112 203 -125 46 -7 256 12 276 24 7 5 16
258 12 338 -1 8 -30 13 -93 15 l-93 3 -3 38 -3 38 142 -3 142 -3 -1 -242 c0
-133 -3 -246 -6 -251 -7 -12 -125 -29 -246 -37 -269 -17 -395 57 -452 263 -18
65 -22 106 -22 267 -1 169 1 199 22 268 68 236 208 298 570 253z m1330 -513
l-3 -528 -45 0 -45 0 -3 515 c-1 283 0 521 3 528 2 7 23 12 50 12 l45 0 -2
-527z m847 -3 l0 -525 -45 0 c-42 0 -45 2 -48 28 -4 34 -15 34 -80 1 -108 -54
-279 -56 -349 -4 -97 71 -128 166 -127 385 0 204 22 281 101 358 55 52 133 78
242 78 47 0 110 -5 140 -10 29 -6 57 -8 63 -5 5 3 9 51 8 108 -1 55 -1 105 -1
109 1 4 22 7 49 5 l47 -3 0 -525z m-1330 309 c94 -35 136 -84 177 -204 9 -28
13 -94 12 -220 0 -163 -3 -186 -24 -240 -26 -67 -87 -135 -148 -161 -49 -22
-292 -24 -337 -3 -91 43 -138 98 -166 194 -21 73 -18 394 4 453 21 55 72 128
104 149 85 56 272 72 378 32z m-5035 -2369 c0 -5 -4 -10 -10 -10 -5 0 -10 5
-10 10 0 6 5 10 10 10 6 0 10 -4 10 -10z m7500 0 c0 -5 -4 -10 -10 -10 -5 0
-10 5 -10 10 0 6 5 10 10 10 6 0 10 -4 10 -10z"/>
<path d="M2160 4688 c-19 -5 -47 -12 -63 -15 -15 -3 -30 -9 -33 -14 -3 -5 -14
-9 -25 -9 -23 0 -122 -49 -189 -93 -76 -51 -166 -134 -215 -199 -54 -72 -138
-241 -154 -311 -21 -89 -30 -236 -20 -324 24 -213 105 -381 254 -529 123 -122
248 -194 415 -237 120 -31 309 -30 432 2 155 40 298 122 399 227 114 119 162
191 214 319 70 175 72 451 4 620 -56 142 -102 210 -218 325 -126 125 -203 168
-420 234 -60 18 -319 21 -381 4z m340 -18 c179 -42 306 -104 417 -204 212
-191 325 -499 279 -764 -43 -247 -154 -433 -342 -572 -229 -170 -567 -213
-831 -106 -292 119 -497 384 -534 689 -30 250 48 503 211 683 75 82 179 159
280 206 151 70 381 100 520 68z"/>
<path d="M2009 4267 c-12 -23 -30 -54 -40 -68 -10 -14 -20 -36 -24 -50 l-6
-24 226 3 c124 2 225 0 225 -4 0 -9 -44 -85 -81 -138 l-27 -41 -68 0 c-61 0
-69 -2 -80 -23 -6 -13 -17 -29 -23 -35 -34 -34 -16 -37 247 -37 l259 0 31 39
c47 59 44 65 -38 58 -80 -7 -92 2 -61 44 11 15 21 31 21 35 0 3 8 18 19 32 10
15 30 47 43 72 66 117 80 140 89 145 5 4 9 13 9 20 0 13 -53 15 -350 14 l-350
0 -21 -42z m366 11 c63 0 115 -4 115 -8 0 -4 9 -10 20 -13 32 -8 25 -30 -7
-23 -16 3 -22 3 -15 0 17 -8 15 -56 -3 -80 -14 -19 -15 -19 -21 2 -5 20 -11
21 -65 17 -55 -5 -59 -4 -59 16 0 21 -1 21 -31 6 -17 -9 -34 -14 -37 -10 -7 6
20 30 42 38 6 2 8 8 4 12 -4 4 -17 -2 -29 -14 -28 -26 -44 -26 -69 -1 -18 18
-18 20 -2 20 14 0 15 2 2 10 -13 8 -12 10 3 10 9 0 17 7 17 16 0 8 5 12 10 9
6 -4 62 -7 125 -7z"/>
<path d="M2036 3756 c-42 -55 -36 -65 34 -59 42 4 60 2 60 -6 0 -13 -47 -97
-144 -255 -36 -60 -66 -110 -66 -112 0 -2 160 -4 355 -4 l354 0 27 48 c14 26
39 66 55 90 16 23 29 47 29 53 0 6 -79 9 -221 9 -121 -1 -224 1 -227 5 -6 6 8
34 65 123 l34 53 57 -1 c31 -1 65 -1 74 -1 16 1 58 58 58 80 0 8 -73 11 -259
11 l-259 0 -26 -34z"/>
<path d="M2880 3059 c0 -5 5 -7 10 -4 6 3 10 8 10 11 0 2 -4 4 -10 4 -5 0 -10
-5 -10 -11z"/>
<path d="M2750 2979 c0 -5 5 -7 10 -4 6 3 10 8 10 11 0 2 -4 4 -10 4 -5 0 -10
-5 -10 -11z"/>
<path d="M2810 2960 c0 -5 5 -10 11 -10 5 0 7 5 4 10 -3 6 -8 10 -11 10 -2 0
-4 -4 -4 -10z"/>
<path d="M2875 2960 c-3 -5 -1 -10 4 -10 6 0 11 5 11 10 0 6 -2 10 -4 10 -3 0
-8 -4 -11 -10z"/>
<path d="M2685 2950 c3 -5 8 -10 11 -10 2 0 4 5 4 10 0 6 -5 10 -11 10 -5 0
-7 -4 -4 -10z"/>
<path d="M2830 2930 c0 -5 5 -10 11 -10 5 0 7 5 4 10 -3 6 -8 10 -11 10 -2 0
-4 -4 -4 -10z"/>
<path d="M2711 2914 c0 -11 3 -14 6 -6 3 7 2 16 -1 19 -3 4 -6 -2 -5 -13z"/>
<path d="M2525 2910 c-16 -7 -17 -9 -3 -9 9 -1 20 4 23 9 7 11 7 11 -20 0z"/>
<path d="M2650 2900 c0 -5 5 -10 10 -10 6 0 10 5 10 10 0 6 -4 10 -10 10 -5 0
-10 -4 -10 -10z"/>
<path d="M2771 2887 c-13 -21 -12 -21 5 -5 10 10 16 20 13 22 -3 3 -11 -5 -18
-17z"/>
<path d="M2876 2894 c-5 -14 -4 -15 9 -4 17 14 19 20 6 20 -5 0 -12 -7 -15
-16z"/>
<path d="M2820 2865 c-14 -16 -10 -18 14 -9 9 3 16 10 16 15 0 14 -16 11 -30
-6z"/>
<path d="M2306 2843 c-11 -11 -6 -23 9 -23 8 0 15 4 15 9 0 13 -16 22 -24 14z"/>
<path d="M2245 2820 c3 -5 8 -10 11 -10 2 0 4 5 4 10 0 6 -5 10 -11 10 -5 0
-7 -4 -4 -10z"/>
<path d="M2360 2800 c0 -5 7 -10 16 -10 8 0 12 5 9 10 -3 6 -10 10 -16 10 -5
0 -9 -4 -9 -10z"/>
<path d="M2205 2760 c3 -5 13 -10 21 -10 8 0 14 5 14 10 0 6 -9 10 -21 10 -11
0 -17 -4 -14 -10z"/>
<path d="M2265 2761 c28 -12 107 -12 100 0 -4 5 -32 9 -63 8 -40 0 -51 -3 -37
-8z"/>
<path d="M2469 2759 c15 -6 34 -6 50 0 22 8 19 9 -24 10 -42 0 -46 -2 -26 -10z"/>
<path d="M3767 4583 c-9 -9 -9 -91 1 -96 4 -3 30 -8 59 -12 44 -6 54 -4 72 14
26 26 27 62 3 84 -19 17 -121 25 -135 10z"/>
<path d="M5497 4584 c-4 -4 -7 -28 -7 -54 l0 -47 49 -6 c63 -7 86 -1 102 30
11 21 11 29 -2 51 -13 24 -21 27 -75 30 -33 2 -63 0 -67 -4z"/>
<path d="M6068 3787 c-52 -17 -101 -68 -124 -130 -16 -43 -19 -78 -19 -212 0
-144 2 -166 23 -218 44 -109 132 -138 290 -97 48 13 98 31 111 40 l23 16 0
294 c-1 247 -3 295 -16 302 -26 14 -248 18 -288 5z"/>
<path d="M4865 3785 c-59 -21 -101 -71 -116 -141 -17 -77 -17 -302 0 -382 23
-105 94 -152 231 -152 87 0 134 15 180 56 28 26 41 48 51 87 18 72 18 337 0
402 -17 61 -72 119 -127 134 -54 15 -171 13 -219 -4z"/>
</g>
</svg>
